<!-- icon666.com - MILLIONS OF FREE VECTOR ICONS --><svg viewBox="0 0 152 152" xmlns="http://www.w3.org/2000/svg"><g id="Layer_2" data-name="Layer 2"><g id="_10.meh_blank" data-name="10.meh blank"><circle id="background" cx="76" cy="76" fill="#a3d5e0" r="76"></circle><g id="icon"><path d="m123.48 123a55.45 55.45 0 0 0 -6.43-8.28c-.75-.8-3.57-2.74-3.92-3.71-.41-1.15 1.42-3.05 2.17-4.37 1.69-3 2.16-6 5.23-7.38a10.93 10.93 0 0 0 6.07-6.26 14.23 14.23 0 0 0 .4-8.75 12 12 0 0 0 -2-4.16c-1-1.37-2.65-2.07-3.23-3.66-.9-2.44.06-6.65-.32-9.38a34.3 34.3 0 0 0 -3.45-11.26 33.13 33.13 0 0 0 -15.23-14.18c-2.57-1.21-5.81-1.49-8.18-3-2.79-1.73-3.92-4.31-7.3-5.5-10.62-3.77-23.61.16-33 5.36-12.69 7-21.53 19.49-21.42 34.3 0 3 .56 3.5-1.54 5.56a12.27 12.27 0 0 0 -4 7.77 13.55 13.55 0 0 0 2.53 9.9c1.88 2.44 5 2.57 6.61 4.71 1.06 1.45 1.68 3.65 2.58 5.23.57 1 2.81 3.33 2.75 4.3-.12 1.86-5 5.39-6.44 7.09a54.4 54.4 0 0 0 -5.71 8.39c-.86 1.56-1.64 3.17-2.35 4.81-1.08 2.5-1.33 2.92.88 4.7a76.27 76.27 0 0 0 38.51 16.22 78.31 78.31 0 0 0 28.31-1.87 75.78 75.78 0 0 0 21.39-9.28 76.66 76.66 0 0 0 9.51-7.11c1.87-1.64 2-1.92.86-4.25a52.58 52.58 0 0 0 -3.28-5.94zm-19.55-7.61a41.28 41.28 0 0 1 -53.57-.39 40 40 0 0 1 -8.36-10.15c-1.39-2.41-1.86-8-4.33-8.84-2-.7-3.52.42-5.19-1.64a10.07 10.07 0 0 1 -2.13-5.75c-.14-2.82.78-6.27 3.16-8 .65 2.13 1.33 4.26 2 6.38 4.29-6.93 9.37-11.11 17.35-13.24a43.93 43.93 0 0 1 15.37-1.08c4.35.4 9 1.77 13.37.87s7.2-4 9.64-7.58c.41-.6 1.44-3 2.17-3.24.56-.18 3 .81 3.55 1a41.07 41.07 0 0 1 6.49 2.73 35.68 35.68 0 0 1 16.69 20.23c.42-2 .87-3.9 1.32-5.85 2.8 2.33 3.54 6.8 2.54 10.16a9.05 9.05 0 0 1 -2.07 3.84c-1.79 1.8-3.22.75-5.12 1.4s-3.1 7-4.35 9.14a40.28 40.28 0 0 1 -8.53 10.01z" fill="#c78852"></path><path d="m122.59 94c-1.24 1.8-2.87 2.92-5.2 2.25-.69-.2-.9.16-1.08.7a41 41 0 0 1 -55.23 24.89 41.35 41.35 0 0 1 -12.22-8.25 40.39 40.39 0 0 1 -10.38-16.51c-.24-.69-.5-1-1.28-.8a4.28 4.28 0 0 1 -4.74-1.91 10.42 10.42 0 0 1 -1.65-9.53 7.61 7.61 0 0 1 2.68-4.24c.69 2.21 1.36 4.28 2 6.4 1-1.59 1.78-3.08 2.8-4.39a22.87 22.87 0 0 1 8.27-6.52c6.87-3.36 14.16-4.11 21.66-3.42 3.21.29 6.39.91 9.6 1.11a12.88 12.88 0 0 0 11.18-4.78c1.6-1.92 2.88-4.09 4.4-6.28 13 3.1 22.18 10.77 26.73 24l1.31-5.86a8.07 8.07 0 0 1 2.64 4.67 10.53 10.53 0 0 1 -1.49 8.47z" fill="#f3cbc1"></path><path d="m121.8 76.29v.16l-.33 4.36c-.45 2-.88 3.94-1.31 5.86-4.56-13.17-13.74-20.85-26.73-24-1.53 2.24-2.81 4.42-4.43 6.33a12.89 12.89 0 0 1 -11.18 4.78c-3.2-.2-6.38-.81-9.6-1.11-7.49-.68-14.79.06-21.65 3.42a23 23 0 0 0 -8.27 6.52c-1 1.32-1.8 2.8-2.8 4.39-.67-2.12-1.67-4.12-2-6.39 0-.19-.05-.37-.07-.55-1.21-9.26.07-14.63.25-15.3a.31.31 0 0 1 0-.07 35.61 35.61 0 0 1 7.12-15 43.36 43.36 0 0 1 11.56-10.07c5.17-3.14 9.82-5.52 15.72-6.81 2.33-.51 4.72-.79 7.08-1.18l6.23.13c1 .19 2 .37 2.91.57 3.28.69 6.51 1.71 8.46 4.57a6.24 6.24 0 0 0 4.16 2.62 34 34 0 0 1 14.48 7.85 29.46 29.46 0 0 1 8.77 13.63 43.66 43.66 0 0 1 1.63 15.29z" fill="#32140a"></path><g fill="#591e0c"><path d="m95.86 93.36a5.07 5.07 0 0 1 .14-10.13 5.07 5.07 0 1 1 -.09 10.13z"></path><path d="m60.1 93.36a5.07 5.07 0 1 1 5.05-5.07 5.1 5.1 0 0 1 -5.05 5.07z"></path></g></g></g></g></svg>