<svg xmlns="http://www.w3.org/2000/svg" width="185" height="52" fill="none"><path fill="#1E1E1E" d="M11.962 6.712q.363.08.73.013 2.144-.387 4.532-.803.64-.111 1.343-.162.383-.028.098.23a3 3 0 0 1-.198.161q-1.443 1.062-2.893 2.093a30.6 30.6 0 0 0-4.158 3.551c-.76.781-1.414 1.669-2.196 2.46-1.033 1.04-2.713 2.257-4.12 1.446a.1.1 0 0 1 .013-.181c1.604-.625 1.693-1.986.481-3.118l-1.871-1.751c-.84-.786-1.585-1.83-1.785-2.966a7 7 0 0 1-.075-1.724C2.051 3.49 3.376 1.603 5.596.65 7.305-.084 9.503-.236 11.21.414c.786.3 1.524.865 1.476 1.79-.065 1.253-.48 2.454-.855 3.706q-.113.375.031.72a.14.14 0 0 0 .1.082M44.28 15.676c-1.532.992-3.612-.76-4.554-1.848q-.681-.784-1.394-1.59c-2.07-2.337-4.832-4.241-7.507-6.11q-.208-.148-.208-.226-.003-.204.198-.174 2.841.426 5.717.987.452.088.85-.02a.17.17 0 0 0 .116-.099.9.9 0 0 0 .037-.644 59 59 0 0 1-.655-2.321 5.7 5.7 0 0 1-.2-1.738c.041-.85 1.167-1.434 1.896-1.627 3.782-1.008 8.259.879 8.851 5.16.287 2.072-.16 3.627-1.666 5.089a90 90 0 0 1-1.94 1.824c-1.276 1.167-1.234 2.47.45 3.21a.07.07 0 0 1 .042.06.07.07 0 0 1-.033.067M20.023 24.746q-1.037 2.384-3.072 4.272c-.972.902-2.207 1.735-3.524 1.789q-2.121.088-3.104-1.93-.627-1.29-.334-3.038c.594-3.536 2.795-5.92 5.98-7.407.752-.351 1.597-.672 2.424-.612q1.71.123 2.248 1.972c.456 1.564.038 3.445-.618 4.954m-1.196-1.71a2.438 2.438 0 1 0-4.876 0 2.438 2.438 0 0 0 4.876 0M33.533 29.923c-2.802-1.973-5.078-5.508-4.999-8.998.054-2.433 1.74-3.751 4.107-2.807 3.707 1.476 6.418 4.24 6.796 8.339.238 2.601-1.572 5.01-4.385 4.195a5.1 5.1 0 0 1-1.519-.729m1.866-6.886a2.437 2.437 0 1 0-4.874 0 2.437 2.437 0 0 0 4.874 0"/><path fill="#1E1E1E" d="M11.115 38.476c4.356 1.779 8.99 3.016 13.477 4.037a.4.4 0 0 0 .17 0c4.389-1.023 8.822-2.186 12.898-3.797q2.693-1.064 4.837-2.474c2.254-1.481 3.453-3.684 4.016-6.3.628-2.914.532-5.976.076-9.081q-.027-.19.089-.038.217.287.392.588c1.55 2.665 2.14 5.908 2.266 9.06q.067 1.71-.2 2.978c-.862 4.06-4.043 7.02-7.52 9.074q-2.626 1.55-4.737 2.503c-4.259 1.924-8.202 3.752-12.168 5.963a.09.09 0 0 1-.087-.001c-3.902-2.234-7.728-3.972-12.167-5.974a41.7 41.7 0 0 1-5.67-3.092c-2.063-1.346-4.013-3.077-5.265-5.16C.403 34.9-.058 32.927.006 30.77c.097-3.395.73-7.115 2.595-9.857q.227-.332.158.064a25.2 25.2 0 0 0-.143 7.728c.402 2.986 1.596 5.78 4.157 7.48q2.03 1.35 4.342 2.292"/><path fill="#1E1E1E" d="M21.416 38.205c-.707-.288-2.029-1.044-2.2-1.792a.175.175 0 0 1 .212-.208q.339.085.691.181c1.111.298 3.235.367 3.806-.897.433-.956-.927-1.767-1.666-2.028q-.636-.226-1.25-.449c-.995-.361-2.08-1.424-1.371-2.474.465-.688 1.646-.794 2.378-.683q1.289.197 2.501.526a.55.55 0 0 0 .285.001 22 22 0 0 1 2.453-.511q.963-.142 1.773.15c.743.268 1.12 1.021.77 1.759q-.402.846-1.327 1.186c-.92.337-1.89.568-2.646 1.238-.953.84-.321 1.88.686 2.175 1.192.349 2.227.16 3.401-.182a.177.177 0 0 1 .224.2c-.14.806-1.704 1.636-2.449 1.907q-3.171 1.158-6.27-.1M67.543 16.309h-3.187v4.863q0 1.043-.493 1.582a1.61 1.61 0 0 1-1.242.539q-.784 0-1.266-.527-.48-.54-.48-1.57V7.952q0-1.149.527-1.64.527-.493 1.676-.493h4.465q1.98 0 3.047.305 1.054.293 1.816.973a4.36 4.36 0 0 1 1.172 1.664q.399.984.399 2.215 0 2.625-1.618 3.984-1.617 1.347-4.816 1.348m-.844-7.875h-2.343v5.25h2.343q1.23 0 2.051-.258.833-.258 1.266-.844.433-.585.433-1.535 0-1.137-.668-1.852-.75-.761-3.082-.761m19.067 12.62-.82-2.156H77.96l-.82 2.204q-.48 1.288-.82 1.746-.34.445-1.114.445-.656 0-1.16-.48t-.504-1.09q0-.352.117-.727t.387-1.043L78.44 8.797q.188-.48.446-1.149.27-.68.562-1.125.305-.445.785-.714.492-.282 1.207-.282.727 0 1.207.282.493.27.786.703.304.433.504.937.21.492.527 1.324l4.488 11.086q.528 1.266.528 1.84 0 .598-.504 1.102a1.63 1.63 0 0 1-1.196.492 1.5 1.5 0 0 1-1.195-.54q-.199-.257-.434-.773-.222-.527-.386-.925m-6.891-4.769h5.133l-2.59-7.09zm17.707-8.672 6.691 10.125V7.52q0-.997.422-1.489.434-.504 1.16-.504.75 0 1.184.504.434.492.434 1.489V21.03q0 2.262-1.875 2.262-.47 0-.844-.14a2.1 2.1 0 0 1-.703-.422 4.3 4.3 0 0 1-.61-.68 73 73 0 0 1-.562-.809l-6.527-10.008v10.067q0 .984-.458 1.488-.457.504-1.171.504-.738 0-1.184-.504-.445-.516-.445-1.488V8.047q0-.844.187-1.324.223-.528.738-.856.516-.34 1.114-.34.468 0 .797.153.34.152.586.41.257.257.515.668.27.41.551.855m15.856-1.793h4.535q1.769 0 3.035.328a5.6 5.6 0 0 1 2.297 1.23q2.683 2.298 2.683 6.985 0 1.548-.269 2.825a8.4 8.4 0 0 1-.832 2.308 7.2 7.2 0 0 1-1.442 1.828 6 6 0 0 1-1.511.996 6.9 6.9 0 0 1-1.77.528q-.937.152-2.121.152h-4.535q-.95 0-1.43-.281a1.39 1.39 0 0 1-.633-.809q-.14-.527-.14-1.36V7.954q0-1.125.504-1.629t1.629-.504m1.347 2.754v11.66h2.637q.867 0 1.359-.047a4.3 4.3 0 0 0 1.02-.234q.527-.187.914-.527 1.746-1.477 1.746-5.086 0-2.543-.773-3.809-.762-1.266-1.887-1.605-1.125-.352-2.719-.352zm24.34 12.48-.82-2.156h-6.985l-.82 2.204q-.48 1.288-.82 1.746-.34.445-1.114.445-.656 0-1.16-.48t-.504-1.09q0-.352.118-.727t.386-1.043l4.395-11.156.445-1.149a6.2 6.2 0 0 1 .563-1.125q.304-.445.785-.714.492-.282 1.207-.282.727 0 1.207.282.492.27.785.703.305.433.504.937.211.492.527 1.324l4.488 11.086q.528 1.266.528 1.84 0 .598-.504 1.102a1.63 1.63 0 0 1-1.195.492 1.5 1.5 0 0 1-1.196-.54q-.2-.257-.433-.773-.224-.527-.387-.925m-6.891-4.769h5.133l-2.59-7.09zm33.809 1.29q0 .82-.41 1.78-.399.95-1.266 1.875-.867.915-2.215 1.489t-3.14.574q-1.36 0-2.473-.258a7.1 7.1 0 0 1-2.027-.797 7 7 0 0 1-1.664-1.441 8.6 8.6 0 0 1-1.16-1.805 9.7 9.7 0 0 1-.727-2.144 12 12 0 0 1-.234-2.414q0-2.074.597-3.715.61-1.641 1.735-2.801a7.5 7.5 0 0 1 2.636-1.781 8.5 8.5 0 0 1 3.223-.61q2.086 0 3.715.832 1.629.833 2.496 2.063.867 1.218.867 2.308 0 .598-.422 1.055a1.34 1.34 0 0 1-1.019.457q-.669 0-1.008-.316-.328-.316-.738-1.09-.68-1.277-1.606-1.91-.914-.633-2.262-.633-2.144 0-3.421 1.629-1.266 1.629-1.266 4.629 0 2.004.562 3.34.563 1.324 1.594 1.98t2.414.656q1.5 0 2.531-.738 1.044-.75 1.571-2.191.222-.68.551-1.102.327-.433 1.054-.433.621 0 1.067.433.445.435.445 1.078m7.664-9.962 6.691 10.125V7.52q0-.997.422-1.489.434-.504 1.16-.504.75 0 1.184.504.434.492.434 1.489V21.03q0 2.262-1.875 2.262-.47 0-.844-.14a2.1 2.1 0 0 1-.703-.422 4.3 4.3 0 0 1-.61-.68 73 73 0 0 1-.562-.809l-6.527-10.008v10.067q0 .984-.457 1.488-.458.504-1.172.504-.739 0-1.184-.504-.445-.516-.445-1.488V8.047q0-.844.187-1.324a1.86 1.86 0 0 1 .739-.856 2 2 0 0 1 1.113-.34q.468 0 .797.153.34.152.586.41.257.257.515.668.27.41.551.855"/><path fill="#21E363" d="M72.195 32.504h-7.84v4.219h7.22q.795 0 1.183.363.398.352.398.937t-.387.961q-.386.364-1.195.364h-7.218v4.886h8.109q.82 0 1.23.387.422.375.422 1.008 0 .609-.422.996-.41.375-1.23.375h-9.457q-1.137 0-1.64-.504-.493-.504-.493-1.629V31.953q0-.75.223-1.219.223-.48.691-.691.48-.222 1.219-.223h9.187q.833 0 1.23.375.41.364.41.961 0 .61-.41.985-.397.363-1.23.363M78.41 43.66l3.844-5.613-3.235-4.992a11 11 0 0 1-.691-1.242 2.6 2.6 0 0 1-.223-1.008q0-.492.434-.88a1.56 1.56 0 0 1 1.078-.398q.727 0 1.125.434.41.422 1.125 1.582l2.578 4.172 2.754-4.172q.34-.527.574-.902.246-.375.469-.621a1.4 1.4 0 0 1 .492-.364q.282-.129.645-.129.656 0 1.066.399.422.387.422.926 0 .785-.902 2.132l-3.387 5.063 3.644 5.613q.493.739.715 1.23.223.48.223.915 0 .41-.2.75-.198.34-.562.539-.363.2-.82.199-.492 0-.832-.211a1.7 1.7 0 0 1-.55-.504q-.212-.305-.786-1.184l-3.023-4.757-3.211 4.898q-.375.585-.54.82a3 3 0 0 1-.374.458 1.6 1.6 0 0 1-.528.351 1.8 1.8 0 0 1-.715.129q-.633 0-1.054-.387-.41-.387-.41-1.125 0-.867.855-2.12m23.969-3.351h-3.188v4.863q0 1.043-.492 1.582a1.61 1.61 0 0 1-1.242.539q-.786 0-1.266-.527-.48-.54-.48-1.57V31.952q0-1.148.527-1.64.527-.493 1.676-.493h4.465q1.98 0 3.046.305 1.055.293 1.817.973a4.4 4.4 0 0 1 1.172 1.664q.398.984.398 2.215 0 2.625-1.617 3.984-1.617 1.348-4.816 1.348m-.844-7.875h-2.344v5.25h2.344q1.23 0 2.051-.258.831-.258 1.265-.844.434-.585.434-1.535 0-1.137-.668-1.852-.75-.762-3.082-.761m17.019 7.218h-1.219v5.52q0 1.09-.48 1.605-.48.516-1.254.516-.832 0-1.289-.54-.457-.538-.457-1.581V31.953q0-1.125.504-1.629t1.629-.504h5.66q1.172 0 2.004.106a4.9 4.9 0 0 1 1.5.398q.808.34 1.43.973.62.633.937 1.476.328.833.328 1.77 0 1.922-1.09 3.07-1.077 1.149-3.281 1.63.925.491 1.77 1.452.843.961 1.5 2.051.668 1.078 1.031 1.957.375.867.375 1.195 0 .34-.223.68-.21.328-.586.516-.375.2-.867.199-.587 0-.984-.281a2.7 2.7 0 0 1-.692-.692 34 34 0 0 1-.773-1.242l-1.395-2.32q-.75-1.277-1.347-1.946-.586-.668-1.196-.914t-1.535-.246m1.992-7.218h-3.211v4.722h3.118q1.254 0 2.109-.21.855-.224 1.301-.739.456-.528.457-1.441 0-.715-.363-1.254a2.2 2.2 0 0 0-1.008-.82q-.61-.258-2.403-.258m24.086.07h-7.84v4.219h7.219q.797 0 1.184.363.398.352.398.937t-.387.961q-.386.364-1.195.364h-7.219v4.886h8.11q.82 0 1.23.387.422.375.422 1.008 0 .609-.422.996-.41.375-1.23.375h-9.457q-1.137 0-1.641-.504-.492-.504-.492-1.629V31.953q0-.75.223-1.219.222-.48.691-.691.48-.222 1.219-.223h9.187q.832 0 1.231.375.41.364.41.961 0 .61-.41.985-.399.363-1.231.363m19.902 9.34q0 1.558-.808 2.8-.797 1.243-2.344 1.946t-3.668.703q-2.543 0-4.195-.961a5.66 5.66 0 0 1-1.91-1.84q-.727-1.16-.727-2.25 0-.633.434-1.078.446-.457 1.125-.457a1.3 1.3 0 0 1 .925.352q.387.351.657 1.043.327.82.703 1.37.387.551 1.078.915.691.351 1.816.351 1.548 0 2.508-.715.973-.727.973-1.804 0-.856-.528-1.383-.515-.54-1.347-.82-.82-.282-2.203-.598-1.852-.434-3.106-1.008-1.242-.585-1.98-1.582-.727-1.008-.727-2.496 0-1.417.774-2.52.772-1.1 2.238-1.687 1.465-.598 3.445-.598 1.582 0 2.731.399 1.16.387 1.922 1.043.76.645 1.113 1.36.351.713.351 1.394 0 .621-.445 1.125a1.39 1.39 0 0 1-1.09.492q-.597 0-.914-.293-.305-.304-.668-.984-.468-.974-1.125-1.512-.656-.55-2.109-.551-1.348 0-2.18.598-.82.585-.82 1.418 0 .515.281.89t.774.645q.492.27.996.422.503.152 1.664.445 1.452.34 2.625.75 1.183.41 2.004.996.831.586 1.289 1.488.468.891.468 2.192m18.168 0q0 1.558-.808 2.8-.798 1.243-2.344 1.946-1.547.703-3.668.703-2.543 0-4.195-.961a5.66 5.66 0 0 1-1.911-1.84q-.726-1.16-.726-2.25 0-.633.433-1.078.446-.457 1.125-.457.551 0 .926.352.387.351.656 1.043.329.82.704 1.37.386.551 1.078.915.691.351 1.816.351 1.547 0 2.508-.715.973-.727.973-1.804 0-.856-.528-1.383-.516-.54-1.347-.82-.82-.282-2.204-.598-1.851-.434-3.105-1.008-1.242-.585-1.98-1.582-.727-1.008-.727-2.496 0-1.417.773-2.52.774-1.1 2.239-1.687 1.464-.598 3.445-.598 1.583 0 2.73.399 1.161.387 1.922 1.043.762.645 1.114 1.36.351.713.351 1.394 0 .621-.445 1.125a1.39 1.39 0 0 1-1.09.492q-.597 0-.914-.293-.305-.304-.668-.984-.47-.974-1.125-1.512-.657-.55-2.109-.551-1.348 0-2.18.598-.82.585-.82 1.418 0 .515.281.89.28.375.773.645.492.27.996.422t1.664.445q1.453.34 2.625.75 1.184.41 2.004.996.833.586 1.289 1.488.47.891.469 2.192"/></svg>